{
	"asset":{
		"generator":"Khronos glTF Blender I/O v3.6.27",
		"version":"2.0"
	},
	"extensionsUsed":[
		"KHR_materials_clearcoat"
	],
	"scene":0,
	"scenes":[
		{
			"name":"Scene",
			"nodes":[
				0,
				1,
				2
			]
		}
	],
	"nodes":[
		{
			"mesh":0,
			"name":"Cube",
			"rotation":[
				0,
				0.3826834261417389,
				0,
				0.9238795638084412
			],
			"scale":[
				1.3674473762512207,
				1.3674473762512207,
				1.3674473762512207
			],
			"translation":[
				1.6366106271743774,
				3.7580158710479736,
				0.2506905496120453
			]
		},
		{
			"mesh":1,
			"name":"Cube.001",
			"rotation":[
				-0.9235591888427734,
				-0.00560405058786273,
				-0.3834080696105957,
				0.0022920698393136263
			],
			"scale":[
				1.3674473762512207,
				1.3674473762512207,
				1.3674473762512207
			],
			"translation":[
				1.640554666519165,
				0.9047662019729614,
				0.24691739678382874
			]
		},
		{
			"mesh":2,
			"name":"Cube.003",
			"rotation":[
				-0.9272501468658447,
				-0.0055814143270254135,
				-0.3743938207626343,
				0.0023464381229132414
			],
			"scale":[
				1.5340255498886108,
				1.5340255498886108,
				1.5340253114700317
			],
			"translation":[
				1.6347459554672241,
				2.31475830078125,
				0.24711717665195465
			]
		}
	],
	"materials":[
		{
			"doubleSided":true,
			"name":"Eth",
			"pbrMetallicRoughness":{
				"baseColorFactor":[
					0.5028864741325378,
					0.038204375654459,
					0.7991029620170593,
					1
				],
				"metallicFactor":0,
				"roughnessFactor":0.5
			}
		},
		{
			"doubleSided":true,
			"extensions":{
				"KHR_materials_clearcoat":{
					"clearcoatFactor":0.5,
					"clearcoatRoughnessFactor":0.029999999329447746
				}
			},
			"name":"Outline",
			"pbrMetallicRoughness":{
				"baseColorFactor":[
					1,
					0.0061224158853292465,
					0.9536805152893066,
					1
				],
				"metallicFactor":0,
				"roughnessFactor":0.4000000059604645
			}
		}
	],
	"meshes":[
		{
			"name":"Cube.001",
			"primitives":[
				{
					"attributes":{
						"POSITION":0,
						"NORMAL":1,
						"TEXCOORD_0":2,
						"TANGENT":3
					},
					"indices":4,
					"material":0
				}
			]
		},
		{
			"name":"Cube.002",
			"primitives":[
				{
					"attributes":{
						"POSITION":5,
						"NORMAL":6,
						"TEXCOORD_0":7,
						"TANGENT":8
					},
					"indices":9,
					"material":0
				}
			]
		},
		{
			"name":"Cube.004",
			"primitives":[
				{
					"attributes":{
						"POSITION":10,
						"NORMAL":11,
						"TEXCOORD_0":12,
						"TANGENT":13
					},
					"indices":14,
					"material":1
				}
			]
		}
	],
	"accessors":[
		{
			"bufferView":0,
			"componentType":5126,
			"count":16,
			"max":[
				0.5960358381271362,
				0.4516075849533081,
				0.5960357785224915
			],
			"min":[
				-0.5960358381271362,
				-0.9999998807907104,
				-0.596035897731781
			],
			"type":"VEC3"
		},
		{
			"bufferView":1,
			"componentType":5126,
			"count":16,
			"type":"VEC3"
		},
		{
			"bufferView":2,
			"componentType":5126,
			"count":16,
			"type":"VEC2"
		},
		{
			"bufferView":3,
			"componentType":5126,
			"count":16,
			"type":"VEC4"
		},
		{
			"bufferView":4,
			"componentType":5123,
			"count":18,
			"type":"SCALAR"
		},
		{
			"bufferView":5,
			"componentType":5126,
			"count":16,
			"max":[
				0.5960358381271362,
				0.18711891770362854,
				0.5960357785224915
			],
			"min":[
				-0.5960358381271362,
				-0.9999998807907104,
				-0.596035897731781
			],
			"type":"VEC3"
		},
		{
			"bufferView":6,
			"componentType":5126,
			"count":16,
			"type":"VEC3"
		},
		{
			"bufferView":7,
			"componentType":5126,
			"count":16,
			"type":"VEC2"
		},
		{
			"bufferView":8,
			"componentType":5126,
			"count":16,
			"type":"VEC4"
		},
		{
			"bufferView":9,
			"componentType":5123,
			"count":18,
			"type":"SCALAR"
		},
		{
			"bufferView":10,
			"componentType":5126,
			"count":24,
			"max":[
				0.6019489169120789,
				1.1831997632980347,
				0.6057384610176086
			],
			"min":[
				-0.6040409207344055,
				-1.4655470848083496,
				-0.6074748635292053
			],
			"type":"VEC3"
		},
		{
			"bufferView":11,
			"componentType":5126,
			"count":24,
			"type":"VEC3"
		},
		{
			"bufferView":12,
			"componentType":5126,
			"count":24,
			"type":"VEC2"
		},
		{
			"bufferView":13,
			"componentType":5126,
			"count":24,
			"type":"VEC4"
		},
		{
			"bufferView":14,
			"componentType":5123,
			"count":24,
			"type":"SCALAR"
		}
	],
	"bufferViews":[
		{
			"buffer":0,
			"byteLength":192,
			"byteOffset":0,
			"target":34962
		},
		{
			"buffer":0,
			"byteLength":192,
			"byteOffset":192,
			"target":34962
		},
		{
			"buffer":0,
			"byteLength":128,
			"byteOffset":384,
			"target":34962
		},
		{
			"buffer":0,
			"byteLength":256,
			"byteOffset":512,
			"target":34962
		},
		{
			"buffer":0,
			"byteLength":36,
			"byteOffset":768,
			"target":34963
		},
		{
			"buffer":0,
			"byteLength":192,
			"byteOffset":804,
			"target":34962
		},
		{
			"buffer":0,
			"byteLength":192,
			"byteOffset":996,
			"target":34962
		},
		{
			"buffer":0,
			"byteLength":128,
			"byteOffset":1188,
			"target":34962
		},
		{
			"buffer":0,
			"byteLength":256,
			"byteOffset":1316,
			"target":34962
		},
		{
			"buffer":0,
			"byteLength":36,
			"byteOffset":1572,
			"target":34963
		},
		{
			"buffer":0,
			"byteLength":288,
			"byteOffset":1608,
			"target":34962
		},
		{
			"buffer":0,
			"byteLength":288,
			"byteOffset":1896,
			"target":34962
		},
		{
			"buffer":0,
			"byteLength":192,
			"byteOffset":2184,
			"target":34962
		},
		{
			"buffer":0,
			"byteLength":384,
			"byteOffset":2376,
			"target":34962
		},
		{
			"buffer":0,
			"byteLength":48,
			"byteOffset":2760,
			"target":34963
		}
	],
	"buffers":[
		{
			"byteLength":2808,
			"uri":"data:application/octet-stream;base64,"
		}
	]
}
